<svg xmlns="http://www.w3.org/2000/svg" viewBox="0 0 200 200">
  <!-- Background circle -->
  <circle cx="100" cy="100" r="95" fill="#f8f9fa" stroke="#dee2e6" stroke-width="2"/>

  <!-- Robot body -->
  <rect x="70" y="60" width="60" height="80" rx="10" fill="#4F9EEB" stroke="#2E75B7" stroke-width="2"/>

  <!-- Robot head -->
  <circle cx="100" cy="50" r="20" fill="#7EC16E" stroke="#5A9C5A" stroke-width="2"/>

  <!-- AI/Brain symbol in head -->
  <circle cx="100" cy="45" r="5" fill="#FFFFFF"/>
  <path d="M95 50 Q100 55 105 50" stroke="#FFFFFF" stroke-width="2" fill="none"/>

  <!-- Arms -->
  <line x1="70" y1="70" x2="40" y2="80" stroke="#4F9EEB" stroke-width="6" stroke-linecap="round"/>
  <line x1="130" y1="70" x2="160" y2="80" stroke="#4F9EEB" stroke-width="6" stroke-linecap="round"/>

  <!-- Legs -->
  <line x1="85" y1="140" x2="85" y2="170" stroke="#4F9EEB" stroke-width="6" stroke-linecap="round"/>
  <line x1="115" y1="140" x2="115" y2="170" stroke="#4F9EEB" stroke-width="6" stroke-linecap="round"/>

  <!-- Neural network connections -->
  <circle cx="40" cy="40" r="3" fill="#4F9EEB" opacity="0.7"/>
  <circle cx="160" cy="40" r="3" fill="#4F9EEB" opacity="0.7"/>
  <circle cx="40" cy="160" r="3" fill="#4F9EEB" opacity="0.7"/>
  <circle cx="160" cy="160" r="3" fill="#4F9EEB" opacity="0.7"/>

  <line x1="40" y1="40" x2="160" y2="40" stroke="#4F9EEB" stroke-width="1" opacity="0.5"/>
  <line x1="40" y1="40" x2="40" y2="160" stroke="#4F9EEB" stroke-width="1" opacity="0.5"/>
  <line x1="160" y1="40" x2="160" y2="160" stroke="#4F9EEB" stroke-width="1" opacity="0.5"/>
  <line x1="40" y1="160" x2="160" y2="160" stroke="#4F9EEB" stroke-width="1" opacity="0.5"/>
</svg>